<mxfile host="app.diagrams.net" modified="2020-08-05T07:05:53.888Z" agent="5.0 (Macintosh; Intel Mac OS X 10_14_4) AppleWebKit/537.36 (KHTML, like Gecko) Chrome/83.0.4103.116 Safari/537.36" etag="1pwYwjc3wt2PS4shdEMD" version="13.5.3" type="github">
  <diagram id="pWCuVnenwqvj1yb3YM8K" name="第 1 页">
    <mxGraphModel dx="2066" dy="1082" grid="1" gridSize="10" guides="1" tooltips="1" connect="1" arrows="1" fold="1" page="1" pageScale="1" pageWidth="3300" pageHeight="4681" math="0" shadow="0">
      <root>
        <mxCell id="0" />
        <mxCell id="1" parent="0" />
        <mxCell id="zdN6bvFij-YTAh6hxQtL-1" value="main()" style="shape=umlLifeline;perimeter=lifelinePerimeter;whiteSpace=wrap;html=1;container=1;collapsible=0;recursiveResize=0;outlineConnect=0;size=40;fillColor=#ffe6cc;strokeColor=#d79b00;" parent="1" vertex="1">
          <mxGeometry x="100" y="100" width="120" height="690" as="geometry" />
        </mxCell>
        <mxCell id="zdN6bvFij-YTAh6hxQtL-8" value="runCmd()" style="swimlane;html=1;startSize=20;horizontal=1;containerType=tree;fillColor=#647687;strokeColor=#314354;fontColor=#ffffff;" parent="1" vertex="1">
          <mxGeometry x="1680" y="70" width="410" height="840" as="geometry">
            <mxRectangle x="450" y="360" width="120" height="20" as="alternateBounds" />
          </mxGeometry>
        </mxCell>
        <mxCell id="zdN6bvFij-YTAh6hxQtL-9" value="" style="edgeStyle=elbowEdgeStyle;elbow=vertical;startArrow=none;endArrow=none;rounded=0;entryX=0;entryY=0.5;entryDx=0;entryDy=0;" parent="zdN6bvFij-YTAh6hxQtL-8" source="zdN6bvFij-YTAh6hxQtL-10" target="zdN6bvFij-YTAh6hxQtL-17" edge="1" visible="0">
          <mxGeometry relative="1" as="geometry" />
        </mxCell>
        <mxCell id="zdN6bvFij-YTAh6hxQtL-10" value="Parent" style="whiteSpace=wrap;html=1;treeFolding=1;treeMoving=1;newEdgeStyle={&quot;edgeStyle&quot;:&quot;elbowEdgeStyle&quot;,&quot;startArrow&quot;:&quot;none&quot;,&quot;endArrow&quot;:&quot;none&quot;};" parent="zdN6bvFij-YTAh6hxQtL-8" vertex="1" collapsed="1">
          <mxGeometry x="20" y="40" width="120" height="40" as="geometry" />
        </mxCell>
        <mxCell id="zdN6bvFij-YTAh6hxQtL-17" value="svr, err := setupServer(staticConfiguration)" style="whiteSpace=wrap;html=1;treeFolding=1;treeMoving=1;newEdgeStyle={&quot;edgeStyle&quot;:&quot;elbowEdgeStyle&quot;,&quot;startArrow&quot;:&quot;none&quot;,&quot;endArrow&quot;:&quot;none&quot;};" parent="zdN6bvFij-YTAh6hxQtL-8" vertex="1" visible="0">
          <mxGeometry x="80" y="90" width="250" height="40" as="geometry" />
        </mxCell>
        <mxCell id="zdN6bvFij-YTAh6hxQtL-22" value="" style="edgeStyle=elbowEdgeStyle;elbow=vertical;startArrow=none;endArrow=none;rounded=0;entryX=0;entryY=0.5;entryDx=0;entryDy=0;" parent="zdN6bvFij-YTAh6hxQtL-8" source="zdN6bvFij-YTAh6hxQtL-10" target="zdN6bvFij-YTAh6hxQtL-23" edge="1" visible="0">
          <mxGeometry relative="1" as="geometry">
            <mxPoint x="590" y="420" as="sourcePoint" />
          </mxGeometry>
        </mxCell>
        <mxCell id="zdN6bvFij-YTAh6hxQtL-23" value="svr.Start(ctx)" style="whiteSpace=wrap;html=1;treeFolding=1;treeMoving=1;newEdgeStyle={&quot;edgeStyle&quot;:&quot;elbowEdgeStyle&quot;,&quot;startArrow&quot;:&quot;none&quot;,&quot;endArrow&quot;:&quot;none&quot;};" parent="zdN6bvFij-YTAh6hxQtL-8" vertex="1" visible="0">
          <mxGeometry x="80" y="390" width="120" height="40" as="geometry" />
        </mxCell>
        <mxCell id="zdN6bvFij-YTAh6hxQtL-25" value="svr.Wait()" style="whiteSpace=wrap;html=1;treeFolding=1;treeMoving=1;newEdgeStyle={&quot;edgeStyle&quot;:&quot;elbowEdgeStyle&quot;,&quot;startArrow&quot;:&quot;none&quot;,&quot;endArrow&quot;:&quot;none&quot;};" parent="zdN6bvFij-YTAh6hxQtL-8" vertex="1" visible="0">
          <mxGeometry x="80" y="470" width="120" height="40" as="geometry" />
        </mxCell>
        <mxCell id="zdN6bvFij-YTAh6hxQtL-24" value="" style="edgeStyle=elbowEdgeStyle;elbow=vertical;startArrow=none;endArrow=none;rounded=0;entryX=0;entryY=0.5;entryDx=0;entryDy=0;" parent="zdN6bvFij-YTAh6hxQtL-8" source="zdN6bvFij-YTAh6hxQtL-10" target="zdN6bvFij-YTAh6hxQtL-25" edge="1" visible="0">
          <mxGeometry relative="1" as="geometry">
            <mxPoint x="590" y="420" as="sourcePoint" />
          </mxGeometry>
        </mxCell>
        <mxCell id="zdN6bvFij-YTAh6hxQtL-33" value="" style="edgeStyle=elbowEdgeStyle;elbow=vertical;startArrow=none;endArrow=none;rounded=0;entryX=0;entryY=0.5;entryDx=0;entryDy=0;" parent="zdN6bvFij-YTAh6hxQtL-8" source="zdN6bvFij-YTAh6hxQtL-17" target="zdN6bvFij-YTAh6hxQtL-34" edge="1" visible="0">
          <mxGeometry relative="1" as="geometry">
            <mxPoint x="570" y="310" as="sourcePoint" />
          </mxGeometry>
        </mxCell>
        <mxCell id="zdN6bvFij-YTAh6hxQtL-34" value="providerAggregator" style="whiteSpace=wrap;html=1;treeFolding=1;treeMoving=1;newEdgeStyle={&quot;edgeStyle&quot;:&quot;elbowEdgeStyle&quot;,&quot;startArrow&quot;:&quot;none&quot;,&quot;endArrow&quot;:&quot;none&quot;};" parent="zdN6bvFij-YTAh6hxQtL-8" vertex="1" visible="0">
          <mxGeometry x="205" y="144" width="135" height="40" as="geometry" />
        </mxCell>
        <mxCell id="zdN6bvFij-YTAh6hxQtL-35" value="" style="edgeStyle=elbowEdgeStyle;elbow=vertical;startArrow=none;endArrow=none;rounded=0;entryX=0;entryY=0.5;entryDx=0;entryDy=0;" parent="zdN6bvFij-YTAh6hxQtL-8" source="zdN6bvFij-YTAh6hxQtL-17" target="zdN6bvFij-YTAh6hxQtL-36" edge="1" visible="0">
          <mxGeometry relative="1" as="geometry">
            <mxPoint x="820" y="340" as="sourcePoint" />
          </mxGeometry>
        </mxCell>
        <mxCell id="zdN6bvFij-YTAh6hxQtL-36" value="serverEntryPointsTCP" style="whiteSpace=wrap;html=1;treeFolding=1;treeMoving=1;newEdgeStyle={&quot;edgeStyle&quot;:&quot;elbowEdgeStyle&quot;,&quot;startArrow&quot;:&quot;none&quot;,&quot;endArrow&quot;:&quot;none&quot;};" parent="zdN6bvFij-YTAh6hxQtL-8" vertex="1" collapsed="1" visible="0">
          <mxGeometry x="205" y="200" width="135" height="40" as="geometry" />
        </mxCell>
        <mxCell id="zdN6bvFij-YTAh6hxQtL-37" value="" style="edgeStyle=elbowEdgeStyle;elbow=vertical;startArrow=none;endArrow=none;rounded=0;entryX=0;entryY=0.5;entryDx=0;entryDy=0;" parent="zdN6bvFij-YTAh6hxQtL-8" source="zdN6bvFij-YTAh6hxQtL-36" target="zdN6bvFij-YTAh6hxQtL-38" edge="1" visible="0">
          <mxGeometry relative="1" as="geometry">
            <mxPoint x="695" y="360" as="sourcePoint" />
          </mxGeometry>
        </mxCell>
        <mxCell id="zdN6bvFij-YTAh6hxQtL-38" value="svr, err := setupServer(staticConfiguration)" style="whiteSpace=wrap;html=1;treeFolding=1;treeMoving=1;newEdgeStyle={&quot;edgeStyle&quot;:&quot;elbowEdgeStyle&quot;,&quot;startArrow&quot;:&quot;none&quot;,&quot;endArrow&quot;:&quot;none&quot;};" parent="zdN6bvFij-YTAh6hxQtL-8" vertex="1" visible="0">
          <mxGeometry x="660" y="140" width="250" height="40" as="geometry" />
        </mxCell>
        <mxCell id="zdN6bvFij-YTAh6hxQtL-39" value="" style="edgeStyle=elbowEdgeStyle;elbow=vertical;startArrow=none;endArrow=none;rounded=0;entryX=0;entryY=0.5;entryDx=0;entryDy=0;" parent="zdN6bvFij-YTAh6hxQtL-8" source="zdN6bvFij-YTAh6hxQtL-17" target="zdN6bvFij-YTAh6hxQtL-40" edge="1" visible="0">
          <mxGeometry relative="1" as="geometry">
            <mxPoint x="570" y="310" as="sourcePoint" />
          </mxGeometry>
        </mxCell>
        <mxCell id="zdN6bvFij-YTAh6hxQtL-40" value="serverEntryPointsUDP" style="whiteSpace=wrap;html=1;treeFolding=1;treeMoving=1;newEdgeStyle={&quot;edgeStyle&quot;:&quot;elbowEdgeStyle&quot;,&quot;startArrow&quot;:&quot;none&quot;,&quot;endArrow&quot;:&quot;none&quot;};" parent="zdN6bvFij-YTAh6hxQtL-8" vertex="1" visible="0">
          <mxGeometry x="205" y="260" width="135" height="40" as="geometry" />
        </mxCell>
        <mxCell id="zdN6bvFij-YTAh6hxQtL-41" value="" style="edgeStyle=elbowEdgeStyle;elbow=vertical;startArrow=none;endArrow=none;rounded=0;entryX=0;entryY=0.5;entryDx=0;entryDy=0;" parent="zdN6bvFij-YTAh6hxQtL-8" source="zdN6bvFij-YTAh6hxQtL-17" target="zdN6bvFij-YTAh6hxQtL-42" edge="1" visible="0">
          <mxGeometry relative="1" as="geometry">
            <mxPoint x="570" y="310" as="sourcePoint" />
          </mxGeometry>
        </mxCell>
        <mxCell id="zdN6bvFij-YTAh6hxQtL-42" value="svr, err := setupServer(staticConfiguration)" style="whiteSpace=wrap;html=1;treeFolding=1;treeMoving=1;newEdgeStyle={&quot;edgeStyle&quot;:&quot;elbowEdgeStyle&quot;,&quot;startArrow&quot;:&quot;none&quot;,&quot;endArrow&quot;:&quot;none&quot;};" parent="zdN6bvFij-YTAh6hxQtL-8" vertex="1" visible="0">
          <mxGeometry x="205" y="320" width="250" height="40" as="geometry" />
        </mxCell>
        <mxCell id="zdN6bvFij-YTAh6hxQtL-27" value="return" style="whiteSpace=wrap;html=1;treeFolding=1;treeMoving=1;newEdgeStyle={&quot;edgeStyle&quot;:&quot;elbowEdgeStyle&quot;,&quot;startArrow&quot;:&quot;none&quot;,&quot;endArrow&quot;:&quot;none&quot;};" parent="zdN6bvFij-YTAh6hxQtL-8" vertex="1" visible="0">
          <mxGeometry x="80" y="570" width="120" height="40" as="geometry" />
        </mxCell>
        <mxCell id="zdN6bvFij-YTAh6hxQtL-26" value="" style="edgeStyle=elbowEdgeStyle;elbow=vertical;startArrow=none;endArrow=none;rounded=0;entryX=0;entryY=0.5;entryDx=0;entryDy=0;" parent="zdN6bvFij-YTAh6hxQtL-8" source="zdN6bvFij-YTAh6hxQtL-10" target="zdN6bvFij-YTAh6hxQtL-27" edge="1" visible="0">
          <mxGeometry relative="1" as="geometry">
            <mxPoint x="540" y="390" as="sourcePoint" />
          </mxGeometry>
        </mxCell>
        <mxCell id="zdN6bvFij-YTAh6hxQtL-50" value="&lt;p style=&quot;margin: 0px ; margin-top: 4px ; text-align: center&quot;&gt;&lt;i&gt;Server&lt;/i&gt;&lt;br&gt;&lt;/p&gt;&lt;hr size=&quot;1&quot;&gt;&lt;p style=&quot;margin: 0px ; margin-left: 4px&quot;&gt;+ watcher: *ConfigurationWatcher&lt;br&gt;+ tcpEntryPoints: TCPEntryPoints&lt;/p&gt;&lt;p style=&quot;margin: 0px ; margin-left: 4px&quot;&gt;+ udpEntryPoints: UDPEntryPoints&lt;br&gt;+ chainBuilder: *middleware.ChainBuilder&lt;br&gt;&lt;/p&gt;&lt;p style=&quot;margin: 0px ; margin-left: 4px&quot;&gt;+ accessLoggerMiddleware: *accesslog.Handler&lt;br&gt;&lt;br&gt;&lt;/p&gt;&lt;hr size=&quot;1&quot;&gt;&lt;p style=&quot;margin: 0px ; margin-left: 4px&quot;&gt;+ method1(Type): Type&lt;br&gt;+ method2(Type, Type): Type&lt;/p&gt;" style="verticalAlign=top;align=left;overflow=fill;fontSize=12;fontFamily=Helvetica;html=1;" parent="zdN6bvFij-YTAh6hxQtL-8" vertex="1">
          <mxGeometry x="10" y="210" width="460" height="380" as="geometry" />
        </mxCell>
        <mxCell id="zdN6bvFij-YTAh6hxQtL-52" value="TCPEntryPoint" style="shape=umlLifeline;perimeter=lifelinePerimeter;whiteSpace=wrap;html=1;container=1;collapsible=0;recursiveResize=0;outlineConnect=0;fillColor=#647687;strokeColor=#314354;fontColor=#ffffff;" parent="1" vertex="1">
          <mxGeometry x="280" y="120" width="129.62" height="680" as="geometry" />
        </mxCell>
        <mxCell id="zdN6bvFij-YTAh6hxQtL-54" value="listener" style="html=1;" parent="zdN6bvFij-YTAh6hxQtL-52" vertex="1">
          <mxGeometry x="-6" y="100" width="130" height="40" as="geometry" />
        </mxCell>
        <mxCell id="zdN6bvFij-YTAh6hxQtL-55" value="AcceptTCP()" style="html=1;" parent="zdN6bvFij-YTAh6hxQtL-52" vertex="1">
          <mxGeometry x="-7.5" y="200" width="130" height="40" as="geometry" />
        </mxCell>
        <mxCell id="zdN6bvFij-YTAh6hxQtL-58" value="tcp.Router.ServeTCP()" style="html=1;" parent="zdN6bvFij-YTAh6hxQtL-52" vertex="1">
          <mxGeometry x="-6" y="360" width="135.62" height="20" as="geometry" />
        </mxCell>
        <mxCell id="zdN6bvFij-YTAh6hxQtL-53" value="UDPEntryPoint" style="shape=umlLifeline;perimeter=lifelinePerimeter;whiteSpace=wrap;html=1;container=1;collapsible=0;recursiveResize=0;outlineConnect=0;fillColor=#647687;strokeColor=#314354;fontColor=#ffffff;" parent="1" vertex="1">
          <mxGeometry x="1520" y="120" width="100" height="680" as="geometry" />
        </mxCell>
        <mxCell id="zdN6bvFij-YTAh6hxQtL-56" value="request" style="html=1;verticalAlign=bottom;endArrow=block;entryX=0;entryY=0.5;entryDx=0;entryDy=0;" parent="1" source="zdN6bvFij-YTAh6hxQtL-1" target="zdN6bvFij-YTAh6hxQtL-54" edge="1">
          <mxGeometry width="80" relative="1" as="geometry">
            <mxPoint x="160" y="220" as="sourcePoint" />
            <mxPoint x="240" y="220" as="targetPoint" />
          </mxGeometry>
        </mxCell>
        <mxCell id="zdN6bvFij-YTAh6hxQtL-57" value="tcp.HandlerSwitcher.ServeTCP()" style="html=1;" parent="1" vertex="1">
          <mxGeometry x="264.38" y="410" width="185.62" height="40" as="geometry" />
        </mxCell>
        <mxCell id="zdN6bvFij-YTAh6hxQtL-60" value="httpServer" style="shape=umlLifeline;perimeter=lifelinePerimeter;whiteSpace=wrap;html=1;container=1;collapsible=0;recursiveResize=0;outlineConnect=0;fillColor=#647687;strokeColor=#314354;fontColor=#ffffff;" parent="1" vertex="1">
          <mxGeometry x="570" y="120" width="193.75" height="680" as="geometry" />
        </mxCell>
        <mxCell id="zdN6bvFij-YTAh6hxQtL-61" value="listener&amp;nbsp;" style="html=1;" parent="zdN6bvFij-YTAh6hxQtL-60" vertex="1">
          <mxGeometry x="70" y="100" width="54" height="40" as="geometry" />
        </mxCell>
        <mxCell id="zdN6bvFij-YTAh6hxQtL-62" value="serverHTTP.Serve()" style="html=1;" parent="zdN6bvFij-YTAh6hxQtL-60" vertex="1">
          <mxGeometry x="50" y="200" width="120" height="40" as="geometry" />
        </mxCell>
        <mxCell id="zdN6bvFij-YTAh6hxQtL-74" value="HTTPHandlerSwitcher.ServeHTTP()" style="html=1;" parent="zdN6bvFij-YTAh6hxQtL-60" vertex="1">
          <mxGeometry x="-10" y="330" width="213.75" height="40" as="geometry" />
        </mxCell>
        <mxCell id="zdN6bvFij-YTAh6hxQtL-63" value="createHTTPServer" style="html=1;verticalAlign=bottom;endArrow=block;" parent="1" target="zdN6bvFij-YTAh6hxQtL-60" edge="1">
          <mxGeometry width="80" relative="1" as="geometry">
            <mxPoint x="340" y="190" as="sourcePoint" />
            <mxPoint x="420" y="190" as="targetPoint" />
          </mxGeometry>
        </mxCell>
        <mxCell id="zdN6bvFij-YTAh6hxQtL-65" value="clientHelloServerName()" style="html=1;" parent="1" vertex="1">
          <mxGeometry x="180" y="520" width="150" height="30" as="geometry" />
        </mxCell>
        <mxCell id="zdN6bvFij-YTAh6hxQtL-71" style="edgeStyle=orthogonalEdgeStyle;rounded=0;orthogonalLoop=1;jettySize=auto;html=1;entryX=0;entryY=0.5;entryDx=0;entryDy=0;exitX=1;exitY=0.5;exitDx=0;exitDy=0;" parent="1" source="zdN6bvFij-YTAh6hxQtL-67" target="zdN6bvFij-YTAh6hxQtL-62" edge="1">
          <mxGeometry relative="1" as="geometry">
            <Array as="points">
              <mxPoint x="460" y="615" />
              <mxPoint x="460" y="340" />
            </Array>
          </mxGeometry>
        </mxCell>
        <mxCell id="zdN6bvFij-YTAh6hxQtL-67" value="r.httpForwarder.ServeTCP&lt;span style=&quot;color: rgba(0 , 0 , 0 , 0) ; font-family: monospace ; font-size: 0px&quot;&gt;%3CmxGraphModel%3E%3Croot%3E%3CmxCell%20id%3D%220%22%2F%3E%3CmxCell%20id%3D%221%22%20parent%3D%220%22%2F%3E%3CmxCell%20id%3D%222%22%20value%3D%22clientHelloServerName()%22%20style%3D%22html%3D1%3B%22%20vertex%3D%221%22%20parent%3D%221%22%3E%3CmxGeometry%20x%3D%22180%22%20y%3D%22550%22%20width%3D%22150%22%20height%3D%2230%22%20as%3D%22geometry%22%2F%3E%3C%2FmxCell%3E%3C%2Froot%3E%3C%2FmxGraphModel%&lt;/span&gt;" style="html=1;" parent="1" vertex="1">
          <mxGeometry x="180" y="600" width="150" height="30" as="geometry" />
        </mxCell>
        <mxCell id="zdN6bvFij-YTAh6hxQtL-73" value="TCProute路由" style="html=1;" parent="1" vertex="1">
          <mxGeometry x="180" y="560" width="150" height="30" as="geometry" />
        </mxCell>
        <mxCell id="zdN6bvFij-YTAh6hxQtL-75" value="Watcher" style="shape=umlLifeline;perimeter=lifelinePerimeter;whiteSpace=wrap;html=1;container=1;collapsible=0;recursiveResize=0;outlineConnect=0;fillColor=#647687;strokeColor=#314354;fontColor=#ffffff;" parent="1" vertex="1">
          <mxGeometry x="1000" y="120" width="130" height="670" as="geometry" />
        </mxCell>
        <mxCell id="zdN6bvFij-YTAh6hxQtL-77" value="watcher.AddListener()" style="html=1;" parent="zdN6bvFij-YTAh6hxQtL-75" vertex="1">
          <mxGeometry y="110" width="130" height="30" as="geometry" />
        </mxCell>
        <mxCell id="zdN6bvFij-YTAh6hxQtL-78" style="edgeStyle=orthogonalEdgeStyle;rounded=0;orthogonalLoop=1;jettySize=auto;html=1;exitX=0.5;exitY=1;exitDx=0;exitDy=0;" parent="zdN6bvFij-YTAh6hxQtL-75" source="zdN6bvFij-YTAh6hxQtL-77" target="zdN6bvFij-YTAh6hxQtL-77" edge="1">
          <mxGeometry relative="1" as="geometry" />
        </mxCell>
        <mxCell id="zdN6bvFij-YTAh6hxQtL-79" value="watcher.Start()" style="html=1;" parent="zdN6bvFij-YTAh6hxQtL-75" vertex="1">
          <mxGeometry y="160" width="130" height="30" as="geometry" />
        </mxCell>
        <mxCell id="zdN6bvFij-YTAh6hxQtL-80" value="c.listenProviders" style="html=1;" parent="zdN6bvFij-YTAh6hxQtL-75" vertex="1">
          <mxGeometry y="230" width="110" height="30" as="geometry" />
        </mxCell>
        <mxCell id="zdN6bvFij-YTAh6hxQtL-94" value="c.preLoadConfiguration()&lt;span style=&quot;color: rgba(0 , 0 , 0 , 0) ; font-family: monospace ; font-size: 0px&quot;&gt;%3CmxGraphModel%3E%3Croot%3E%3CmxCell%20id%3D%220%22%2F%3E%3CmxCell%20id%3D%221%22%20parent%3D%220%22%2F%3E%3CmxCell%20id%3D%222%22%20value%3D%22watcher.Start()%22%20style%3D%22html%3D1%3B%22%20vertex%3D%221%22%20parent%3D%221%22%3E%3CmxGeometry%20x%3D%221010%22%20y%3D%22280%22%20width%3D%22130%22%20height%3D%2230%22%20as%3D%22geometry%22%2F%3E%3C%2FmxCell%3E%3C%2Froot%3E%3C%2FmxGraphModel%3E&lt;/span&gt;" style="html=1;" parent="zdN6bvFij-YTAh6hxQtL-75" vertex="1">
          <mxGeometry y="325" width="150" height="30" as="geometry" />
        </mxCell>
        <mxCell id="zdN6bvFij-YTAh6hxQtL-81" value="Watcher" style="shape=umlLifeline;perimeter=lifelinePerimeter;whiteSpace=wrap;html=1;container=1;collapsible=0;recursiveResize=0;outlineConnect=0;fillColor=#647687;strokeColor=#314354;fontColor=#ffffff;" parent="1" vertex="1">
          <mxGeometry x="1190" y="120" width="130" height="680" as="geometry" />
        </mxCell>
        <mxCell id="zdN6bvFij-YTAh6hxQtL-83" style="edgeStyle=orthogonalEdgeStyle;rounded=0;orthogonalLoop=1;jettySize=auto;html=1;exitX=0.5;exitY=1;exitDx=0;exitDy=0;" parent="zdN6bvFij-YTAh6hxQtL-81" edge="1">
          <mxGeometry relative="1" as="geometry">
            <mxPoint x="65" y="140" as="sourcePoint" />
            <mxPoint x="65" y="140" as="targetPoint" />
          </mxGeometry>
        </mxCell>
        <mxCell id="zdN6bvFij-YTAh6hxQtL-84" value="watcher.Start()" style="html=1;" parent="zdN6bvFij-YTAh6hxQtL-81" vertex="1">
          <mxGeometry y="160" width="130" height="30" as="geometry" />
        </mxCell>
        <mxCell id="zdN6bvFij-YTAh6hxQtL-85" value="&amp;nbsp;c.startProvider()" style="html=1;" parent="zdN6bvFij-YTAh6hxQtL-81" vertex="1">
          <mxGeometry x="10" y="230" width="100" height="30" as="geometry" />
        </mxCell>
        <mxCell id="zdN6bvFij-YTAh6hxQtL-86" value="Watcher" style="shape=umlLifeline;perimeter=lifelinePerimeter;whiteSpace=wrap;html=1;container=1;collapsible=0;recursiveResize=0;outlineConnect=0;fillColor=#647687;strokeColor=#314354;" parent="1" vertex="1">
          <mxGeometry x="820" y="120" width="157.5" height="1160" as="geometry" />
        </mxCell>
        <mxCell id="zdN6bvFij-YTAh6hxQtL-87" style="edgeStyle=orthogonalEdgeStyle;rounded=0;orthogonalLoop=1;jettySize=auto;html=1;exitX=0.5;exitY=1;exitDx=0;exitDy=0;" parent="zdN6bvFij-YTAh6hxQtL-86" edge="1">
          <mxGeometry relative="1" as="geometry">
            <mxPoint x="65" y="140" as="sourcePoint" />
            <mxPoint x="65" y="140" as="targetPoint" />
          </mxGeometry>
        </mxCell>
        <mxCell id="zdN6bvFij-YTAh6hxQtL-88" value="watcher.Start()" style="html=1;" parent="zdN6bvFij-YTAh6hxQtL-86" vertex="1">
          <mxGeometry y="160" width="130" height="30" as="geometry" />
        </mxCell>
        <mxCell id="zdN6bvFij-YTAh6hxQtL-89" value="c.listenConfigurations" style="html=1;" parent="zdN6bvFij-YTAh6hxQtL-86" vertex="1">
          <mxGeometry x="10" y="230" width="120" height="30" as="geometry" />
        </mxCell>
        <mxCell id="zdN6bvFij-YTAh6hxQtL-96" value="loadMessage()" style="html=1;" parent="zdN6bvFij-YTAh6hxQtL-86" vertex="1">
          <mxGeometry x="10" y="400" width="100" height="30" as="geometry" />
        </mxCell>
        <mxCell id="zdN6bvFij-YTAh6hxQtL-99" value="listener(conf)" style="html=1;" parent="zdN6bvFij-YTAh6hxQtL-86" vertex="1">
          <mxGeometry x="20" y="470" width="90" height="30" as="geometry" />
        </mxCell>
        <mxCell id="zdN6bvFij-YTAh6hxQtL-100" value="switchRouter()" style="html=1;fillColor=#008a00;strokeColor=#005700;fontColor=#ffffff;" parent="zdN6bvFij-YTAh6hxQtL-86" vertex="1">
          <mxGeometry x="5" y="550" width="110" height="50" as="geometry" />
        </mxCell>
        <mxCell id="gSZHTJOcY2DM8SWSaC1C-5" value="CreateRouters(" style="html=1;fontColor=#000000;" vertex="1" parent="zdN6bvFij-YTAh6hxQtL-86">
          <mxGeometry x="30" y="620" width="100" height="50" as="geometry" />
        </mxCell>
        <mxCell id="gSZHTJOcY2DM8SWSaC1C-3" value="routerManager := router.NewManager(" style="html=1;" vertex="1" parent="zdN6bvFij-YTAh6hxQtL-86">
          <mxGeometry x="-40" y="690" width="220" height="50" as="geometry" />
        </mxCell>
        <mxCell id="gSZHTJOcY2DM8SWSaC1C-6" value="handlersNonTLS := routerManager.BuildHandlers(" style="html=1;fontColor=#000000;" vertex="1" parent="zdN6bvFij-YTAh6hxQtL-86">
          <mxGeometry x="-50" y="770" width="207.5" height="50" as="geometry" />
        </mxCell>
        <mxCell id="gSZHTJOcY2DM8SWSaC1C-7" value="handlersTLS := routerManager.BuildHandlers(" style="html=1;fontColor=#000000;" vertex="1" parent="zdN6bvFij-YTAh6hxQtL-86">
          <mxGeometry x="25" y="840" width="110" height="50" as="geometry" />
        </mxCell>
        <mxCell id="zdN6bvFij-YTAh6hxQtL-90" value="CHANNEL" style="edgeStyle=orthogonalEdgeStyle;rounded=1;orthogonalLoop=1;jettySize=auto;html=1;exitX=0.25;exitY=1;exitDx=0;exitDy=0;entryX=0.75;entryY=1;entryDx=0;entryDy=0;sketch=1;shadow=1;" parent="1" source="zdN6bvFij-YTAh6hxQtL-85" target="zdN6bvFij-YTAh6hxQtL-80" edge="1">
          <mxGeometry relative="1" as="geometry">
            <Array as="points">
              <mxPoint x="1225" y="410" />
              <mxPoint x="1093" y="410" />
            </Array>
          </mxGeometry>
        </mxCell>
        <mxCell id="zdN6bvFij-YTAh6hxQtL-95" value="CHANNEL" style="edgeStyle=orthogonalEdgeStyle;rounded=1;sketch=1;orthogonalLoop=1;jettySize=auto;html=1;exitX=0.25;exitY=1;exitDx=0;exitDy=0;entryX=0.75;entryY=1;entryDx=0;entryDy=0;shadow=1;" parent="1" source="zdN6bvFij-YTAh6hxQtL-94" target="zdN6bvFij-YTAh6hxQtL-89" edge="1">
          <mxGeometry relative="1" as="geometry" />
        </mxCell>
        <mxCell id="zdN6bvFij-YTAh6hxQtL-102" style="edgeStyle=orthogonalEdgeStyle;rounded=1;sketch=1;orthogonalLoop=1;jettySize=auto;html=1;shadow=1;" parent="1" source="zdN6bvFij-YTAh6hxQtL-100" target="zdN6bvFij-YTAh6hxQtL-52" edge="1">
          <mxGeometry relative="1" as="geometry">
            <Array as="points">
              <mxPoint x="450" y="695" />
              <mxPoint x="450" y="695" />
            </Array>
          </mxGeometry>
        </mxCell>
        <mxCell id="zdN6bvFij-YTAh6hxQtL-103" value="动态修改handler" style="edgeLabel;html=1;align=center;verticalAlign=middle;resizable=0;points=[];" parent="zdN6bvFij-YTAh6hxQtL-102" vertex="1" connectable="0">
          <mxGeometry x="0.3155" y="1" relative="1" as="geometry">
            <mxPoint as="offset" />
          </mxGeometry>
        </mxCell>
        <mxCell id="zdN6bvFij-YTAh6hxQtL-104" style="edgeStyle=orthogonalEdgeStyle;rounded=1;sketch=1;orthogonalLoop=1;jettySize=auto;html=1;shadow=1;" parent="1" source="zdN6bvFij-YTAh6hxQtL-100" target="zdN6bvFij-YTAh6hxQtL-53" edge="1">
          <mxGeometry relative="1" as="geometry">
            <Array as="points">
              <mxPoint x="1300" y="695" />
              <mxPoint x="1300" y="695" />
            </Array>
          </mxGeometry>
        </mxCell>
        <mxCell id="zdN6bvFij-YTAh6hxQtL-105" value="动态修改Handler" style="edgeLabel;html=1;align=center;verticalAlign=middle;resizable=0;points=[];" parent="zdN6bvFij-YTAh6hxQtL-104" vertex="1" connectable="0">
          <mxGeometry x="0.5067" y="-135" relative="1" as="geometry">
            <mxPoint x="-135" y="-135" as="offset" />
          </mxGeometry>
        </mxCell>
        <mxCell id="zdN6bvFij-YTAh6hxQtL-106" value="KUbernetes" style="shape=umlLifeline;perimeter=lifelinePerimeter;whiteSpace=wrap;html=1;container=1;collapsible=0;recursiveResize=0;outlineConnect=0;fillColor=#647687;strokeColor=#314354;fontColor=#ffffff;" parent="1" vertex="1">
          <mxGeometry x="1390" y="120" width="80" height="680" as="geometry" />
        </mxCell>
        <mxCell id="zdN6bvFij-YTAh6hxQtL-107" style="edgeStyle=orthogonalEdgeStyle;rounded=1;sketch=1;orthogonalLoop=1;jettySize=auto;html=1;shadow=1;entryX=1;entryY=0.5;entryDx=0;entryDy=0;" parent="1" source="zdN6bvFij-YTAh6hxQtL-106" target="zdN6bvFij-YTAh6hxQtL-85" edge="1">
          <mxGeometry relative="1" as="geometry">
            <Array as="points">
              <mxPoint x="1390" y="365" />
              <mxPoint x="1390" y="365" />
            </Array>
          </mxGeometry>
        </mxCell>
        <mxCell id="gSZHTJOcY2DM8SWSaC1C-8" value="server/service/service.BuildHTTP()" style="html=1;fontColor=#000000;" vertex="1" parent="1">
          <mxGeometry x="840" y="1050" width="110" height="50" as="geometry" />
        </mxCell>
      </root>
    </mxGraphModel>
  </diagram>
</mxfile>
